<svg width="512" height="512" viewBox="0 0 512 512" fill="none" xmlns="http://www.w3.org/2000/svg">
<rect width="512" height="512" rx="120" fill="url(#paint0_linear)"/>
<path d="M256 140C191.918 140 140 191.918 140 256C140 320.082 191.918 372 256 372C320.082 372 372 320.082 372 256C372 191.918 320.082 140 256 140ZM256 348C205.183 348 164 306.817 164 256C164 205.183 205.183 164 256 164C306.817 164 348 205.183 348 256C348 306.817 306.817 348 256 348Z" fill="white" fill-opacity="0.8"/>
<path d="M256 180C214.026 180 180 214.026 180 256C180 297.974 214.026 332 256 332C297.974 332 332 297.974 332 256C332 214.026 297.974 180 256 180ZM256 308C227.281 308 204 284.719 204 256C204 227.281 227.281 204 256 204C284.719 204 308 227.281 308 256C308 284.719 284.719 308 256 308Z" fill="white"/>
<defs>
<linearGradient id="paint0_linear" x1="0" y1="0" x2="512" y2="512" gradientUnits="userSpaceOnUse">
<stop stop-color="#D06C9E"/>
<stop offset="1" stop-color="#A78BFA"/>
</linearGradient>
</defs>
</svg>
